<?xml version="1.0" encoding="UTF-8" standalone="no"?>
<svg
   xmlns:osb="http://www.openswatchbook.org/uri/2009/osb"
   xmlns:dc="http://purl.org/dc/elements/1.1/"
   xmlns:cc="http://creativecommons.org/ns#"
   xmlns:rdf="http://www.w3.org/1999/02/22-rdf-syntax-ns#"
   xmlns:svg="http://www.w3.org/2000/svg"
   xmlns="http://www.w3.org/2000/svg"
   xmlns:sodipodi="http://sodipodi.sourceforge.net/DTD/sodipodi-0.dtd"
   xmlns:inkscape="http://www.inkscape.org/namespaces/inkscape"
   width="793.700787402"
   height="1122.51968504"
   version="1.1"
   id="svg4564"
   sodipodi:docname="back.svg"
   inkscape:version="0.92.2 (5c3e80d, 2017-08-06)"
   inkscape:export-filename="Z:\Electronic\projekty\_my-work\glosnik-bodzio\design\back.png"
   inkscape:export-xdpi="300"
   inkscape:export-ydpi="300">
  <metadata
     id="metadata4568">
    <rdf:RDF>
      <cc:Work
         rdf:about="">
        <dc:format>image/svg+xml</dc:format>
        <dc:type
           rdf:resource="http://purl.org/dc/dcmitype/StillImage" />
        <dc:title />
      </cc:Work>
    </rdf:RDF>
  </metadata>
  <sodipodi:namedview
     pagecolor="#ffffff"
     bordercolor="#666666"
     borderopacity="1"
     objecttolerance="10"
     gridtolerance="10"
     guidetolerance="10"
     inkscape:pageopacity="0"
     inkscape:pageshadow="2"
     inkscape:window-width="1920"
     inkscape:window-height="1017"
     id="namedview4566"
     showgrid="false"
     inkscape:zoom="1.4142136"
     inkscape:cx="376.88799"
     inkscape:cy="514.95494"
     inkscape:window-x="632"
     inkscape:window-y="-8"
     inkscape:window-maximized="1"
     inkscape:current-layer="layer1" />
  <desc
     id="desc4529">F:\doxy\g³onik\ty³\wymiar.dxf - scale = 1.000000, origin = (0.000000, 0.000000), method = manual</desc>
  <defs
     id="defs4544">
    <marker
       id="DistanceX"
       orient="auto"
       refX="0.0"
       refY="0.0"
       style="overflow:visible">
      <path
         d="M 3,-3 L -3,3 M 0,-5 L  0,5"
         style="stroke:#000000; stroke-width:0.5"
         id="path4531" />
    </marker>
    <pattern
       height="8"
       id="Hatch"
       patternUnits="userSpaceOnUse"
       width="8"
       x="0"
       y="0">
      <path
         d="M8 4 l-4,4"
         linecap="square"
         stroke="#000000"
         stroke-width="0.25"
         id="path4534" />
      <path
         d="M6 2 l-4,4"
         linecap="square"
         stroke="#000000"
         stroke-width="0.25"
         id="path4536" />
      <path
         d="M4 0 l-4,4"
         linecap="square"
         stroke="#000000"
         stroke-width="0.25"
         id="path4538" />
    </pattern>
    <symbol
       id="*Model_Space" />
    <symbol
       id="*Paper_Space" />
    <symbol
       id="*Paper_Space0" />
    <clipPath
       clipPathUnits="userSpaceOnUse"
       id="clipPath5188">
      <path
         style="fill:none;stroke:#000000;stroke-width:1px;stroke-linecap:butt;stroke-linejoin:miter;stroke-opacity:1"
         d="M 97.536002,1534.5249 V 2155.056 H 760.10816 v -620.5308 l -662.572158,-3e-4"
         id="path5190"
         inkscape:connector-curvature="0"
         sodipodi:nodetypes="ccccc" />
    </clipPath>
    <linearGradient
       osb:paint="solid"
       id="linearGradient2505">
      <stop
         id="stop2503"
         offset="0"
         style="stop-color:#000000;stop-opacity:1;" />
    </linearGradient>
  </defs>
  <g
     inkscape:groupmode="layer"
     inkscape:label="0"
     id="g4562" />
  <g
     inkscape:groupmode="layer"
     id="layer2"
     inkscape:label="ramka" />
  <g
     inkscape:groupmode="layer"
     id="layer1"
     inkscape:label="szablon">
    <path
       sodipodi:nodetypes="ccccccc"
       inkscape:connector-curvature="0"
       d="M 294.30716,900.93046 V 716.95191 l 231.28909,0.0454 m 0,183.93315 V 716.99731 M 294.30716,900.93046 h 231.28909"
       style="fill:none;stroke:#000000;stroke-width:1px;stroke-linecap:butt;stroke-linejoin:miter;stroke-opacity:1"
       id="path5458-6"
       inkscape:export-xdpi="300"
       inkscape:export-ydpi="300" />
    <rect
       y="716.95184"
       x="294.30713"
       height="183.97858"
       width="231.28909"
       id="rect5460-7"
       style="opacity:1;fill:#000000;fill-opacity:0.89019608;fill-rule:evenodd;stroke:#000000;stroke-width:0.495;stroke-linecap:round;stroke-linejoin:round;stroke-miterlimit:4;stroke-dasharray:none;stroke-opacity:1;paint-order:markers fill stroke"
       inkscape:export-xdpi="300"
       inkscape:export-ydpi="300" />
    <path
       inkscape:connector-curvature="0"
       id="path5462-7"
       style="fill:#fffffc;fill-opacity:1;stroke:none"
       d="m 385.75373,823.56036 c 0.007,-14.61656 -11.84014,-16.92334 -26.45669,-16.92334 -14.61655,0 -26.46365,2.30678 -26.45669,16.92334 -0.007,14.61656 11.84014,15.33235 26.45669,15.33235 14.61655,0 26.46365,-0.71579 26.45669,-15.33235 z"
       sodipodi:nodetypes="cscsc"
       inkscape:export-xdpi="300"
       inkscape:export-ydpi="300" />
    <path
       inkscape:connector-curvature="0"
       id="path5464-4"
       style="fill:#fffffc;fill-opacity:1;stroke:none"
       d="m 472.68287,821.56036 a 22.677165,22.677165 0 1 0 -45.35433,0 22.677165,22.677165 0 1 0 45.35433,0 z"
       inkscape:export-xdpi="300"
       inkscape:export-ydpi="300" />
    <path
       sodipodi:nodetypes="cssc"
       inkscape:connector-curvature="0"
       id="path5466-6"
       d="m 461.8887,770.38951 c 0,0 -7.22512,-9.71973 -10.36177,-6.98023 -5.90469,5.1571 11.04736,16.16816 9.27122,21.36522 -1.49314,4.36889 -6.1622,0.5829 -6.1622,0.5829"
       style="fill:none;stroke:#676a0d;stroke-width:1.53800011;stroke-linecap:round;stroke-linejoin:miter;stroke-miterlimit:4;stroke-dasharray:none;stroke-opacity:1"
       inkscape:export-xdpi="300"
       inkscape:export-ydpi="300" />
    <path
       inkscape:connector-curvature="0"
       id="path5468-7"
       d="m 444.42599,779.64957 6.24812,-5.1587 4.2295,4.90237 c 0,0 0.10151,3.23595 -1.22163,4.55909 -1.32309,1.32309 -4.25749,1.01616 -4.38566,1.01616 -0.12817,0 -4.87033,-5.31892 -4.87033,-5.31892 z"
       style="fill:#676a0d;fill-opacity:1;stroke:#676a0d;stroke-width:0.5126667px;stroke-linecap:butt;stroke-linejoin:miter;stroke-opacity:1"
       inkscape:export-xdpi="300"
       inkscape:export-ydpi="300" />
    <path
       inkscape:connector-curvature="0"
       id="path5470-5"
       d="m 444.45685,776.13781 3.03601,-2.62819 -3.51182,-4.41809 c 0,0 -1.7446,-0.61174 -2.35631,0.068 -0.61172,0.67971 -1.11018,2.12975 -0.77034,2.6282 0.33985,0.49845 3.60246,4.35011 3.60246,4.35011 z"
       style="fill:#676a0d;fill-opacity:1;stroke:#676a0d;stroke-width:0.5126667px;stroke-linecap:butt;stroke-linejoin:miter;stroke-opacity:1"
       inkscape:export-xdpi="300"
       inkscape:export-ydpi="300" />
    <path
       sodipodi:nodetypes="ccaacacc"
       inkscape:connector-curvature="0"
       id="path5472-6"
       d="m 439.04186,769.0009 2.60553,-1.92583 c 0,0 -0.14499,-1.6105 -0.60326,-2.22888 -0.20994,-0.28333 -0.55117,-0.49048 -0.8966,-0.56157 -0.87805,-0.18072 -1.44875,-0.0215 -2.65777,0.41148 -0.2266,0.63439 -0.41106,2.22913 0.068,3.17196 0.28187,0.55482 1.48402,1.13284 1.48402,1.13284 z"
       style="fill:#676a0d;fill-opacity:1;stroke:#676a0d;stroke-width:0.5126667px;stroke-linecap:butt;stroke-linejoin:miter;stroke-opacity:1"
       inkscape:export-xdpi="300"
       inkscape:export-ydpi="300" />
    <path
       style="fill:none;stroke:#676a0d;stroke-width:1.53800011;stroke-linecap:round;stroke-linejoin:miter;stroke-miterlimit:4;stroke-dasharray:none;stroke-opacity:1"
       d="m 461.8887,770.38951 c 0,0 -7.22512,-9.71973 -10.36177,-6.98023 -5.90469,5.1571 11.04736,16.16816 9.27122,21.36522 -1.49314,4.36889 -6.1622,0.5829 -6.1622,0.5829"
       id="path5474-7"
       inkscape:connector-curvature="0"
       sodipodi:nodetypes="cssc"
       inkscape:export-xdpi="300"
       inkscape:export-ydpi="300" />
    <path
       style="fill:#676a0d;fill-opacity:1;stroke:#676a0d;stroke-width:0.5126667px;stroke-linecap:butt;stroke-linejoin:miter;stroke-opacity:1"
       d="m 444.42599,779.64957 6.24812,-5.1587 4.2295,4.90237 c 0,0 0.10151,3.23595 -1.22163,4.55909 -1.32309,1.32309 -4.25749,1.01616 -4.38566,1.01616 -0.12817,0 -4.87033,-5.31892 -4.87033,-5.31892 z"
       id="path5476-7"
       inkscape:connector-curvature="0"
       inkscape:export-xdpi="300"
       inkscape:export-ydpi="300" />
    <path
       style="fill:#676a0d;fill-opacity:1;stroke:#676a0d;stroke-width:0.5126667px;stroke-linecap:butt;stroke-linejoin:miter;stroke-opacity:1"
       d="m 444.45685,776.13781 3.03601,-2.62819 -3.51182,-4.41809 c 0,0 -1.7446,-0.61174 -2.35631,0.068 -0.61172,0.67971 -1.11018,2.12975 -0.77034,2.6282 0.33985,0.49845 3.60246,4.35011 3.60246,4.35011 z"
       id="path5478-1"
       inkscape:connector-curvature="0"
       inkscape:export-xdpi="300"
       inkscape:export-ydpi="300" />
    <path
       style="fill:#676a0d;fill-opacity:1;stroke:#676a0d;stroke-width:0.5126667px;stroke-linecap:butt;stroke-linejoin:miter;stroke-opacity:1"
       d="m 439.04186,769.0009 2.60553,-1.92583 c 0,0 -0.14499,-1.6105 -0.60326,-2.22888 -0.20994,-0.28333 -0.55117,-0.49048 -0.8966,-0.56157 -0.87805,-0.18072 -1.44875,-0.0215 -2.65777,0.41148 -0.2266,0.63439 -0.41106,2.22913 0.068,3.17196 0.28187,0.55482 1.48402,1.13284 1.48402,1.13284 z"
       id="path5480-7"
       inkscape:connector-curvature="0"
       sodipodi:nodetypes="ccaacacc"
       inkscape:export-xdpi="300"
       inkscape:export-ydpi="300" />
    <path
       sodipodi:nodetypes="ccccccc"
       inkscape:connector-curvature="0"
       id="path5482-6"
       d="m 355.52046,766.33454 c 3.6735,-5.80479 7.62633,-12.91771 8.76656,-16.10005 -7.63228,7.68538 -13.81184,15.69496 -20.34286,23.62608 l 15.22895,-4.19853 -11.94569,17.59248 c 9.5885,-8.75963 19.32536,-17.49615 26.63869,-26.61122 z"
       style="fill:#ff9d00;fill-opacity:0.89019608;stroke:#ff9d00;stroke-width:0.29171982;stroke-linecap:butt;stroke-linejoin:round;stroke-miterlimit:4;stroke-dasharray:none;stroke-opacity:0.89019608;paint-order:markers fill stroke"
       inkscape:export-xdpi="300"
       inkscape:export-ydpi="300" />
  </g>
</svg>
